<svg version="1.2" xmlns="http://www.w3.org/2000/svg" viewBox="0 0 500 500" width="500" height="500">
    <path fill-rule="evenodd"
        d="m29 0h442c16 0 29 13 29 29v442c0 16-13 29-29 29h-442c-16 0-29-13-29-29v-442c0-16 13-29 29-29z" />
    <path fill="#fff"
        d="m433.8 198.1h-61.1c0 0-16.8 2-17.5 22.3 0 0-1.1 17.3 17.6 21.4h34.8c0 0 4.9 1.6 4.9 6.8 0 0 0.6 5.7-5.9 6.8h-40.7l-8.8 16.5h53.4c0 0 21.4-1.8 21.4-25.3 0 0-0.6-19.6-18.7-20.4l-34.7 0.1c0 0-4.4-0.7-4.9-5.9 0 0-0.4-6 4.9-6.7h47.5z" />
    <path fill="#fff" d="m256.6 197.9l8.4 16.1h34l26 51c0 0 2 4.7 11 6l13 1-37-72c0 0-0.9-2.1-4-2z" />
    <path fill="#fff" d="m253 270l20-37c0 0 2.1-2.6 4-2h14l12 23c0 0 0.8 2.8-2 3l-15-1c0 0-3.7-0.9-6 2l-7 12z" />
    <path fill-rule="evenodd" fill="#fff"
        d="m166 197.9l14.6 15.8h38.2c0 0 6.9 0 6.9 7.7 0 0 0.6 7.4-6.9 7.4-7.4 0.1-23.5 0-23.5 0l29.2 41.3h22.5l-17.2-26.4c0 0 15.4-4 15.4-22.1 0 0 1.3-23.7-19.5-23.7z" />
    <path fill-rule="evenodd" fill="#fff" d="m166.6 228.8v41.3h19.5v-41.3z" />
    <path fill="#fff"
        d="m84.3 229.1l-0.3 73.9 17-8v-24h25c0 0 29.1-2.6 32-36 0 0 0.1-33.1-30-37h-55l8 16h43c0 0 14.4 2 16 19 0 0 0.6 17.7-18 21h-21l-0.1-24.9z" />
</svg>